<?xml version="1.0" standalone="no"?>
<!DOCTYPE svg PUBLIC "-//W3C//DTD SVG 20010904//EN"
 "http://www.w3.org/TR/2001/REC-SVG-20010904/DTD/svg10.dtd">
<svg version="1.0" xmlns="http://www.w3.org/2000/svg"
 width="273.000000pt" height="273.000000pt" viewBox="0 0 273.000000 273.000000"
 preserveAspectRatio="xMidYMid meet">
<metadata>
Created by potrace 1.11, written by Peter Selinger 2001-2013
</metadata>
<g transform="translate(0.000000,273.000000) scale(0.100000,-0.100000)"
fill="#000000" stroke="none">
<path d="M2161 2603 c-5 -10 -13 -17 -18 -15 -13 4 -181 -37 -300 -74 -86 -27
-117 -32 -132 -25 -14 8 -22 7 -31 -4 -16 -19 -34 -20 -27 -1 3 7 -3 27 -14
45 -26 44 -64 41 -141 -9 -34 -22 -68 -40 -75 -40 -22 0 -14 -18 10 -22 12 -2
29 4 37 12 12 13 13 13 5 1 -6 -9 4 -5 23 8 17 12 32 25 32 28 0 3 -7 0 -15
-7 -9 -7 -18 -10 -21 -8 -3 3 9 16 26 28 33 23 90 32 96 15 3 -6 -11 -10 -31
-9 -19 1 -37 -2 -40 -6 -3 -5 9 -7 26 -5 18 3 36 2 41 -1 15 -9 -12 -33 -30
-27 -14 4 -15 3 -2 -5 10 -8 18 -8 27 0 15 12 15 6 13 -105 -2 -118 16 -140
44 -49 27 90 28 100 4 57 -24 -43 -36 -31 -21 23 l8 29 50 -16 c93 -30 91 -26
77 -129 -17 -124 -17 -127 8 -102 12 12 18 25 14 31 -3 6 -3 22 1 37 10 40 25
8 25 -56 0 -45 -3 -54 -22 -61 -13 -5 -26 -7 -30 -4 -5 2 -8 0 -8 -5 0 -6 -15
-19 -34 -30 -31 -18 -35 -19 -50 -4 -11 11 -16 12 -16 4 0 -7 -5 -10 -10 -7
-18 11 9 48 31 42 21 -6 27 9 7 16 -9 3 -7 11 7 27 11 13 15 20 8 17 -6 -4
-13 -2 -15 3 -2 6 -30 -13 -63 -42 -97 -86 -93 -84 -114 -59 -10 12 -24 35
-31 51 -7 18 -17 27 -26 23 -9 -3 -14 2 -14 15 0 18 5 19 39 15 52 -7 83 11
79 45 -2 15 -12 31 -23 37 -16 8 -20 20 -20 58 0 44 -3 49 -40 75 -40 28 -105
52 -142 52 -25 0 -123 -49 -123 -62 0 -5 24 4 54 21 29 17 63 31 74 31 28 0
53 -11 47 -20 -3 -5 3 -6 13 -4 9 3 33 -5 52 -18 43 -29 57 -79 29 -104 -23
-20 -24 -37 -5 -53 11 -9 19 -9 35 1 16 10 23 10 33 0 22 -22 -4 -47 -48 -47
-38 0 -39 1 -44 40 -3 22 -13 51 -22 63 -9 13 -14 33 -11 45 4 19 3 20 -6 5
-9 -14 -17 -15 -42 -6 -19 7 -28 15 -25 24 3 8 1 14 -4 14 -6 0 -10 -7 -10
-15 0 -10 -10 -15 -32 -15 -25 0 -29 -3 -18 -10 8 -5 23 -7 33 -4 55 17 135
-56 121 -111 l-6 -25 -23 24 c-15 16 -39 27 -71 31 -27 4 -55 13 -63 19 -11 9
-13 8 -9 -4 3 -9 23 -18 50 -21 59 -9 84 -23 103 -59 11 -22 12 -36 5 -55
l-10 -27 -29 31 c-23 25 -37 31 -69 31 -22 0 -48 3 -58 7 -12 4 -15 3 -10 -5
4 -7 25 -12 47 -12 22 0 49 -5 60 -10 24 -13 49 -61 49 -95 0 -27 -28 -85 -41
-85 -13 0 -39 49 -29 55 6 3 10 11 10 17 0 6 -7 5 -17 -3 -9 -8 -15 -9 -12 -4
3 6 -5 21 -18 34 -13 13 -23 20 -23 15 0 -6 5 -15 11 -21 19 -19 -1 -36 -33
-29 -18 3 -27 2 -23 -4 3 -6 13 -10 21 -10 24 0 16 -44 -15 -87 -45 -62 -82
-84 -159 -93 -37 -4 -61 -8 -54 -9 21 -2 14 -20 -26 -64 -22 -23 -41 -51 -45
-62 -3 -11 -34 -86 -70 -168 -101 -231 -177 -304 -362 -351 -11 -3 8 -3 43 -1
40 3 61 1 57 -5 -3 -6 -1 -10 4 -10 6 0 11 -9 11 -19 0 -12 -34 -47 -88 -93
-49 -40 -115 -105 -148 -144 -58 -71 -59 -71 -99 -66 -72 9 -141 56 -182 122
-26 43 -34 81 -35 162 -1 78 22 133 83 202 24 28 43 52 41 55 -4 7 29 85 76
178 26 54 58 95 118 154 88 88 197 169 226 169 10 0 23 9 30 21 11 18 166 129
180 129 3 0 10 -18 17 -40 6 -22 16 -40 22 -40 6 0 6 7 -1 19 -14 28 -12 102
5 150 31 88 136 176 260 217 58 19 86 40 40 30 -16 -4 -66 -24 -110 -45 -105
-49 -175 -119 -207 -207 -22 -59 -27 -65 -101 -113 -43 -28 -83 -51 -90 -51
-35 0 -115 -32 -141 -56 -19 -18 -46 -30 -79 -35 -27 -5 -58 -16 -68 -25 -22
-20 -94 -159 -104 -199 -4 -20 -30 -51 -80 -95 l-73 -65 -12 -70 c-6 -38 -21
-106 -32 -150 -12 -44 -22 -100 -23 -125 -1 -25 -11 -73 -23 -107 -34 -95 -41
-212 -42 -650 l0 -403 714 0 c562 0 715 3 719 13 4 9 7 9 18 -1 22 -20 42 -15
29 8 -9 17 -8 20 8 20 11 0 31 -9 45 -20 22 -17 40 -20 140 -20 67 0 118 4
122 10 3 6 18 10 33 10 21 0 24 -2 12 -10 -10 -6 142 -10 438 -10 l452 0 0
1085 c0 597 -3 1085 -5 1085 -3 0 -15 -6 -26 -12 -17 -11 -23 -10 -26 0 -12
31 -55 70 -105 91 -183 81 -204 93 -256 147 l-53 56 25 19 c14 11 31 19 38 18
30 -4 39 3 55 36 16 34 16 36 -4 63 -19 25 -26 27 -89 27 l-69 0 0 -48 c0 -41
3 -49 22 -53 24 -6 49 -31 40 -40 -6 -6 -57 24 -68 40 -4 5 -12 5 -18 2 -15
-10 -13 5 4 28 19 25 19 43 1 62 -19 18 -23 18 -35 -3z m78 -129 c15 -15 14
-16 -4 -9 -11 4 -35 11 -52 17 -18 5 -33 12 -33 15 0 12 74 -7 89 -23z m-726
-179 c7 -16 -8 -29 -23 -20 -10 6 -2 35 10 35 4 0 10 -7 13 -15z m601 -55 c6
-6 11 -34 11 -63 0 -40 -9 -70 -38 -129 -21 -43 -37 -85 -35 -94 2 -9 26 -25
55 -36 29 -10 63 -32 77 -48 16 -19 26 -25 29 -17 3 6 5 1 4 -13 0 -14 0 -49
1 -77 2 -58 17 -68 57 -39 11 8 33 12 48 11 15 -2 25 1 22 5 -3 5 -12 7 -20 3
-25 -9 -17 14 12 37 26 21 28 21 33 3 3 -10 14 -19 25 -21 l20 -4 -20 16 c-20
16 -20 16 -1 31 15 11 23 12 33 3 10 -8 12 -8 8 3 -3 8 4 20 14 26 18 12 20 9
27 -35 8 -50 -7 -124 -32 -157 -55 -74 -64 -91 -64 -112 0 -13 -5 -33 -11 -45
-13 -24 -74 -51 -99 -43 -23 7 -36 43 -21 58 6 6 11 16 11 21 -1 19 -30 -27
-30 -46 0 -25 44 -51 70 -43 22 7 22 7 3 -12 -23 -23 -76 -146 -94 -218 -12
-46 -28 -75 -44 -75 -6 0 -67 -41 -75 -51 -3 -3 -15 -11 -27 -18 -13 -6 -23
-19 -23 -27 0 -8 -5 -12 -10 -9 -6 4 -36 -20 -68 -53 -66 -68 -94 -102 -86
-102 3 0 -1 -7 -10 -15 -8 -8 -19 -15 -25 -15 -6 0 -7 -7 -4 -17 4 -10 2 -14
-4 -10 -6 4 -18 -11 -28 -33 -10 -22 -22 -40 -27 -40 -5 0 -6 -4 -3 -10 3 -5
2 -10 -3 -10 -6 0 -13 -11 -16 -25 -4 -14 -11 -23 -16 -20 -6 4 -7 -1 -3 -11
5 -13 3 -15 -7 -9 -10 6 -12 4 -7 -9 4 -10 1 -19 -8 -22 -8 -4 -13 -10 -10
-14 4 -7 -25 -24 -30 -18 -1 2 -9 18 -18 37 -23 47 -22 130 8 397 l4 41 -46 7
c-26 3 -61 17 -82 33 -22 16 -29 19 -19 7 14 -16 14 -22 3 -37 -13 -18 -14
-18 -24 2 -7 13 -8 28 -1 45 5 14 6 26 2 26 -11 0 -29 -32 -37 -69 -4 -18 -13
-35 -20 -38 -8 -2 -11 -11 -8 -18 2 -8 -1 -31 -8 -52 -7 -21 -14 -33 -16 -26
-2 7 1 22 7 34 8 15 9 24 1 32 -6 6 -7 15 -2 21 5 6 14 28 20 49 7 20 16 37
21 37 5 0 10 12 12 28 2 15 8 26 14 25 16 -3 5 47 -18 80 -11 15 -22 53 -25
85 -6 53 -7 55 -16 27 -5 -16 -12 -50 -16 -75 l-6 -45 -48 3 c-30 1 -46 -1
-42 -7 3 -6 12 -8 20 -4 8 3 15 0 15 -6 0 -7 10 -9 25 -7 24 4 25 2 25 -38 l0
-44 -66 24 c-77 28 -124 52 -124 62 0 4 9 13 19 19 14 9 18 21 16 47 -2 25 1
36 13 41 9 3 13 3 9 -1 -7 -7 30 -34 65 -46 19 -8 19 12 0 35 -10 11 -10 16
-1 19 8 3 11 27 10 72 -1 40 3 74 10 82 7 9 7 14 1 14 -10 0 -22 76 -14 97 3
9 10 10 25 2 21 -10 21 -10 3 5 -11 9 -23 16 -28 16 -10 0 -11 55 -2 99 9 42
45 43 61 2 9 -25 8 -29 -4 -24 -13 5 -13 2 -4 -15 6 -11 12 -31 12 -44 1 -13
5 -3 9 22 5 25 6 56 3 70 -3 18 -2 21 5 11 7 -10 12 -5 21 22 7 19 19 41 28
49 10 8 14 8 10 1 -15 -24 17 -26 36 -2 l19 24 19 -24 c21 -26 25 -21 8 10 -9
17 -19 20 -62 17 -48 -3 -52 -1 -61 25 -7 19 -7 33 0 45 15 24 89 38 125 25
16 -6 31 -8 34 -3 10 17 -25 30 -77 29 -31 -1 -60 1 -65 4 -13 8 -4 67 15 96
14 21 17 21 27 7 7 -9 18 -16 24 -16 7 0 9 -5 5 -12 -5 -7 9 0 30 16 38 28 39
29 53 10 8 -10 18 -20 23 -20 6 -1 15 -2 21 -3 5 0 7 -6 3 -12 -8 -13 21 1 94
47 28 19 52 31 52 27 0 -4 11 4 25 17 14 13 25 33 25 44 0 17 16 28 78 53 42
18 86 34 97 36 25 4 75 -9 89 -23z m-638 -128 c-3 -5 -17 -12 -31 -14 -19 -4
-25 -1 -25 13 0 26 31 42 49 24 7 -7 11 -17 7 -23z m184 33 c0 -3 -7 -17 -16
-31 -10 -14 -13 -24 -8 -23 5 1 20 -2 33 -8 20 -8 21 -11 8 -16 -10 -4 -28 3
-44 17 -27 24 -28 24 -9 45 18 20 36 28 36 16z m-310 -186 c10 -28 10 -52 3
-91 l-9 -53 -8 40 c-12 73 -21 90 -44 93 -26 4 -25 1 -10 59 l11 46 22 -27
c13 -16 28 -46 35 -67z m-63 -31 c6 -7 13 -46 17 -86 5 -56 3 -76 -8 -87 -7
-8 -17 -11 -21 -7 -5 4 -5 1 -1 -6 5 -7 14 -11 21 -8 15 5 26 -72 12 -81 -5
-3 -4 -10 2 -16 6 -6 11 -33 11 -59 0 -39 -3 -48 -17 -49 -17 -1 -17 -2 0 -6
15 -4 17 -17 17 -95 0 -59 -4 -88 -11 -86 -6 2 -10 7 -9 12 3 17 -22 23 -100
21 -44 0 -80 0 -80 2 0 8 66 76 84 85 19 10 20 10 8 -5 -8 -9 -12 -22 -9 -29
4 -9 6 -8 6 3 1 9 8 22 17 30 11 9 14 22 10 43 -4 17 -7 37 -8 45 -1 11 -4 10
-13 -3 -9 -11 -29 -16 -66 -17 -107 -2 -112 -1 -105 17 6 15 4 15 -10 3 -16
-13 -16 -12 -6 8 7 12 17 25 24 29 7 5 8 3 3 -6 -5 -8 -4 -11 3 -6 6 4 9 12 7
19 -5 13 67 128 81 130 5 1 8 7 6 13 -1 7 2 16 8 19 7 4 10 1 8 -6 -1 -8 2
-14 7 -14 6 0 9 4 7 9 -2 6 -4 35 -5 66 -1 53 1 58 38 93 43 39 57 44 72 25z
m-137 -107 c0 -16 -5 -42 -12 -58 l-12 -28 -4 29 c-2 17 2 32 10 37 10 7 10 9
-2 9 -13 0 -13 1 0 10 13 8 13 10 -2 10 -9 0 -20 5 -23 10 -4 6 5 10 19 10 22
0 26 -5 26 -29z m1440 -36 c0 -8 -2 -15 -4 -15 -2 0 -6 7 -10 15 -3 8 -1 15 4
15 6 0 10 -7 10 -15z m-1521 -265 c11 5 22 6 25 2 6 -9 -92 -47 -100 -39 -3 3
-1 15 6 26 9 17 15 19 30 11 14 -7 26 -8 39 0z m105 -45 c-28 -37 -43 -41 -25
-7 6 11 7 22 3 26 -3 4 1 4 11 0 10 -3 17 -1 17 5 0 6 5 11 11 11 5 0 -2 -16
-17 -35z m-66 -56 c-9 -6 -12 -28 -11 -76 2 -51 -3 -82 -18 -121 -21 -52 -22
-53 -60 -50 -22 1 -39 4 -39 7 1 19 21 32 43 29 14 -1 25 1 24 7 -1 5 -7 9
-13 7 -7 -1 -15 5 -18 15 -6 13 -11 10 -32 -20 -23 -34 -45 -54 -28 -24 23 38
67 92 74 92 5 0 12 4 17 9 5 5 3 6 -4 2 -23 -13 -14 12 10 29 12 8 21 16 19
18 -4 3 5 31 26 82 12 28 18 34 20 21 2 -10 -2 -22 -10 -27z m112 -94 c0 -17
-12 -55 -26 -84 -23 -45 -25 -56 -15 -78 6 -14 9 -34 5 -45 -4 -13 -2 -18 5
-14 14 9 42 -47 31 -63 -4 -8 -13 -10 -19 -7 -6 4 -11 1 -11 -7 0 -10 8 -13
25 -9 20 3 25 0 25 -17 0 -12 -6 -23 -12 -25 -60 -16 -215 -70 -223 -77 -14
-14 -42 -11 -42 5 0 8 6 12 14 9 11 -5 14 1 10 26 -3 17 -1 31 4 31 6 0 7 5 3
12 -4 6 -3 8 3 5 6 -4 14 0 17 9 3 8 2 13 -3 9 -5 -3 -8 3 -7 12 2 9 8 19 14
21 7 2 10 8 6 13 -3 5 0 9 5 9 17 0 13 -18 -6 -29 -17 -10 -17 -10 0 -11 11 0
21 9 24 19 3 11 11 17 18 15 7 -3 16 0 20 6 4 7 1 10 -6 9 -21 -3 -50 12 -43
22 3 5 10 7 15 3 5 -3 9 -2 8 3 -5 17 24 61 47 74 13 7 24 16 24 20 0 5 6 6
13 4 6 -3 18 4 24 15 11 16 10 18 -2 14 -8 -4 -15 -10 -15 -16 0 -5 -5 -6 -10
-3 -6 4 -18 1 -26 -6 -8 -6 -17 -9 -20 -7 -9 10 25 80 36 73 5 -3 10 1 10 9 0
9 8 16 18 17 10 0 12 3 5 6 -7 2 -15 4 -19 3 -9 -2 -32 43 -27 53 3 4 27 7 54
6 48 -2 49 -3 49 -34z m95 -5 c3 -6 -1 -7 -9 -4 -18 7 -21 14 -7 14 6 0 13 -4
16 -10z m-78 -153 c7 -5 11 -13 8 -17 -9 -15 17 -23 27 -9 7 10 8 9 3 -6 -4
-11 -8 -32 -10 -48 -3 -44 -10 -40 -30 16 -10 28 -25 60 -33 70 -15 16 -14 17
4 11 10 -4 25 -11 31 -17z m-506 -100 c-10 -9 -11 -8 -5 6 3 10 9 15 12 12 3
-3 0 -11 -7 -18z m755 -24 c-10 -10 -19 5 -10 18 6 11 8 11 12 0 2 -7 1 -15
-2 -18z m-6 -32 c0 -5 -7 -14 -15 -21 -16 -14 -18 -10 -9 14 6 17 24 22 24 7z
m-5 -60 c-8 -17 -23 -31 -32 -31 -9 0 -14 2 -12 5 60 70 70 76 44 26z m-899 4
c-11 -8 -31 -25 -45 -37 -56 -48 -63 -48 -11 1 30 28 60 51 65 51 6 -1 1 -7
-9 -15z m1874 -9 c0 -3 -4 -8 -10 -11 -5 -3 -10 -1 -10 4 0 6 5 11 10 11 6 0
10 -2 10 -4z m-2416 -113 c-16 -53 -29 -73 -18 -28 9 40 22 75 28 75 2 0 -2
-21 -10 -47z m2102 -49 c-3 -8 -16 -14 -28 -15 -13 0 -17 -3 -11 -6 10 -3 10
-10 2 -25 -8 -15 -14 -17 -22 -9 -8 8 -8 14 -2 19 6 4 11 13 13 20 1 8 13 27
25 44 21 28 22 29 25 8 2 -12 1 -28 -2 -36z m-16 -84 c0 -5 -5 -10 -11 -10 -5
0 -7 5 -4 10 3 6 8 10 11 10 2 0 4 -4 4 -10z m-73 -32 c-3 -7 -5 -2 -5 12 0
14 2 19 5 13 2 -7 2 -19 0 -25z m-21 -36 c-22 -5 -30 3 -21 18 5 8 11 7 22 -2
15 -12 14 -13 -1 -16z m-706 -16 c0 -3 -4 -8 -10 -11 -5 -3 -10 -1 -10 4 0 6
5 11 10 11 6 0 10 -2 10 -4z m230 -115 c-19 -16 -22 -22 -12 -34 10 -12 8 -14
-18 -11 -21 3 -32 -2 -39 -15 -6 -10 -7 -22 -3 -26 4 -5 1 -5 -5 -1 -18 10
-16 24 7 43 11 10 20 23 20 29 0 7 12 17 28 22 42 16 49 13 22 -7z m-250 -43
c0 -30 -25 -15 -28 17 -3 25 -2 27 12 16 9 -8 16 -22 16 -33z m60 30 c0 -13
-39 -68 -40 -57 0 3 5 20 11 38 11 31 29 43 29 19z m270 2 c0 -5 -5 -10 -11
-10 -5 0 -7 5 -4 10 3 6 8 10 11 10 2 0 4 -4 4 -10z m-4 -54 c12 -13 11 -15
-6 -21 -18 -6 -27 -35 -21 -68 1 -5 -3 -6 -9 -2 -6 4 -9 14 -8 23 2 10 -3 17
-13 16 -20 -2 -19 24 1 47 19 22 37 23 56 5z m-338 -24 c2 -12 -1 -22 -6 -22
-6 0 -8 -8 -6 -17 4 -19 -11 -51 -20 -42 -10 10 7 110 18 106 6 -2 12 -13 14
-25z m64 3 c-2 -14 -8 -22 -13 -19 -5 3 -5 14 1 25 14 26 18 24 12 -6z m318
-36 c0 -6 -7 -17 -15 -25 -13 -14 -15 -14 -15 1 0 9 -5 13 -10 10 -6 -4 -9 -1
-8 7 5 25 48 31 48 7z m126 -8 l24 -19 -24 2 c-13 0 -22 6 -19 13 2 6 -4 13
-14 16 -10 3 -12 5 -5 6 8 0 25 -8 38 -18z m-454 -27 c-1 -16 -3 -42 -3 -59
l0 -30 -19 24 c-21 24 -26 51 -11 51 5 0 12 -6 14 -12 4 -9 6 -8 6 2 0 8 -3
22 -8 30 -11 17 -4 33 12 27 7 -2 11 -17 9 -33z m212 -3 c-2 -3 -12 3 -22 13
-16 17 -16 18 5 5 12 -7 20 -15 17 -18z m179 -31 c-6 -24 -23 -37 -23 -18 0
12 18 38 26 38 1 0 0 -9 -3 -20z m191 4 c3 -8 2 -12 -4 -9 -6 3 -10 10 -10 16
0 14 7 11 14 -7z m-651 -31 c-7 -47 -23 -67 -23 -29 0 25 15 66 25 66 2 0 1
-17 -2 -37z m108 -30 c-7 -14 -9 -10 -7 17 4 50 8 59 13 28 2 -15 0 -35 -6
-45z m246 35 c-3 -8 -6 -5 -6 6 -1 11 2 17 5 13 3 -3 4 -12 1 -19z m283 -2 c0
-2 -8 -10 -17 -17 -16 -13 -17 -12 -4 4 13 16 21 21 21 13z m80 -18 c0 -13
-23 -5 -28 10 -2 7 2 10 12 6 9 -3 16 -11 16 -16z m-190 -8 c0 -13 -28 -25
-38 -16 -3 4 0 11 8 16 20 13 30 12 30 0z m145 -8 c-3 -3 -11 0 -18 7 -9 10
-8 11 6 5 10 -3 15 -9 12 -12z m20 -22 c-3 -5 -12 -10 -18 -10 -7 0 -6 4 3 10
19 12 23 12 15 0z m-175 -15 c-33 -19 -50 -18 -26 0 11 8 27 15 35 15 10 -1 7
-6 -9 -15z m200 11 c0 -2 -8 -10 -17 -17 -16 -13 -17 -12 -4 4 13 16 21 21 21
13z m-117 -26 c-3 -11 -9 -20 -13 -20 -5 0 -15 -3 -23 -6 -12 -4 -14 0 -10 15
4 17 16 25 45 30 3 0 4 -8 1 -19z m136 -3 c-2 -1 -13 -9 -24 -17 -19 -14 -19
-14 -6 3 7 9 18 17 24 17 6 0 8 -1 6 -3z m23 -29 c-6 -6 -15 -8 -19 -4 -4 4
-1 11 7 16 19 12 27 3 12 -12z m-162 -8 c-8 -5 -24 -9 -35 -9 l-20 0 20 9 c11
5 27 9 35 9 13 1 13 0 0 -9z m-486 -50 c25 -38 25 -40 6 -40 -11 0 -23 0 -27
-1 -4 0 -9 4 -11 10 -2 6 4 11 14 11 15 0 16 2 2 18 -23 26 -30 42 -20 42 5 0
21 -18 36 -40z m110 -6 c9 -22 8 -24 -9 -24 -8 0 -15 9 -15 20 0 24 15 27 24
4z m310 -13 c12 -13 14 -21 6 -26 -13 -8 -40 12 -40 31 0 20 14 17 34 -5z
m111 -1 c-3 -5 -12 -10 -18 -10 -7 0 -6 4 3 10 19 12 23 12 15 0z m515 6 c0
-2 -8 -10 -17 -17 -16 -13 -17 -12 -4 4 13 16 21 21 21 13z m-1100 -32 c0 -8
-2 -14 -4 -14 -2 0 -12 -3 -21 -6 -14 -6 -14 -3 -4 19 12 27 29 27 29 1z m450
-28 c-6 -6 -15 -5 -25 4 -12 10 -13 16 -3 27 10 13 14 12 25 -3 8 -11 10 -21
3 -28z m-80 24 c0 -5 -9 -14 -20 -20 -24 -13 -26 -7 -4 14 18 18 24 20 24 6z
m159 -14 c10 -12 9 -14 -6 -11 -10 2 -22 4 -26 4 -10 1 1 21 12 21 5 0 14 -6
20 -14z m72 -9 c-10 -9 -11 -8 -5 6 3 10 9 15 12 12 3 -3 0 -11 -7 -18z m44
-17 c-28 -12 -37 -12 -30 0 3 6 16 10 28 9 21 0 21 -1 2 -9z"/>
<path d="M1735 1940 c-2 -4 28 -10 68 -13 40 -3 92 -12 117 -21 50 -17 67 -10
46 20 -13 17 -28 19 -120 20 -58 1 -108 -2 -111 -6z"/>
<path d="M1798 1790 l-33 -29 45 1 c45 1 45 1 10 8 -22 5 -27 8 -13 9 12 0 25
6 29 12 4 7 24 9 53 5 30 -3 37 -2 21 3 -72 23 -78 22 -112 -9z"/>
<path d="M1528 1803 c7 -3 16 -2 19 1 4 3 -2 6 -13 5 -11 0 -14 -3 -6 -6z"/>
<path d="M2442 1760 c0 -19 2 -27 5 -17 2 9 2 25 0 35 -3 9 -5 1 -5 -18z"/>
<path d="M1878 1773 c7 -3 16 -2 19 1 4 3 -2 6 -13 5 -11 0 -14 -3 -6 -6z"/>
<path d="M1354 1732 c3 -5 0 -13 -6 -15 -8 -3 -6 -6 5 -6 19 -1 23 14 5 25 -6
4 -8 3 -4 -4z"/>
<path d="M2331 1702 c0 -12 -8 -25 -17 -29 -12 -4 -12 -8 -4 -13 9 -6 5 -18
-15 -46 -24 -34 -24 -35 -2 -10 15 18 40 32 64 36 l38 8 -35 1 -35 1 25 20
c14 11 17 18 8 14 -12 -4 -18 1 -21 18 l-4 23 -2 -23z"/>
<path d="M1544 1619 c-15 -16 -16 -24 -6 -39 7 -11 12 -26 12 -34 0 -8 4 -17
9 -20 12 -8 0 48 -12 55 -13 9 0 42 13 34 5 -3 10 1 10 9 0 21 -3 20 -26 -5z"/>
<path d="M1666 1622 c-3 -5 9 -6 26 -4 22 3 35 0 45 -14 7 -10 13 -13 13 -8 0
27 -70 49 -84 26z"/>
<path d="M1390 1609 c0 -5 5 -7 10 -4 6 3 10 8 10 11 0 2 -4 4 -10 4 -5 0 -10
-5 -10 -11z"/>
<path d="M1732 1552 c-11 -25 -11 -25 4 -10 9 9 15 21 13 27 -2 6 -10 -2 -17
-17z"/>
<path d="M1403 1525 c0 -27 2 -38 4 -22 2 15 2 37 0 50 -2 12 -4 0 -4 -28z"/>
<path d="M1636 1537 c-16 -11 -13 -13 22 -13 27 1 38 5 35 14 -7 16 -34 15
-57 -1z"/>
<path d="M1588 1513 c7 -3 16 -2 19 1 4 3 -2 6 -13 5 -11 0 -14 -3 -6 -6z"/>
<path d="M1421 1414 c0 -11 3 -14 6 -6 3 7 2 16 -1 19 -3 4 -6 -2 -5 -13z"/>
<path d="M1618 1413 c7 -3 16 -2 19 1 4 3 -2 6 -13 5 -11 0 -14 -3 -6 -6z"/>
<path d="M1734 1384 c24 -24 19 -32 -21 -37 l-38 -4 40 1 c31 1 41 5 43 20 2
10 -2 22 -10 27 -22 14 -31 10 -14 -7z"/>
<path d="M1588 1383 c7 -3 16 -2 19 1 4 3 -2 6 -13 5 -11 0 -14 -3 -6 -6z"/>
<path d="M1668 1383 c7 -3 16 -2 19 1 4 3 -2 6 -13 5 -11 0 -14 -3 -6 -6z"/>
<path d="M1708 1373 c7 -3 16 -2 19 1 4 3 -2 6 -13 5 -11 0 -14 -3 -6 -6z"/>
<path d="M1577 1359 c7 -7 15 -10 18 -7 3 3 -2 9 -12 12 -14 6 -15 5 -6 -5z"/>
<path d="M1618 1363 c6 -2 18 -2 25 0 6 3 1 5 -13 5 -14 0 -19 -2 -12 -5z"/>
<path d="M1390 1346 c0 -9 5 -16 10 -16 6 0 10 4 10 9 0 6 -4 13 -10 16 -5 3
-10 -1 -10 -9z"/>
<path d="M1669 1309 c14 -5 30 -13 36 -17 6 -4 2 1 -8 11 -11 9 -27 17 -36 16
-10 0 -7 -4 8 -10z"/>
<path d="M1271 1257 c-1 -21 21 -18 27 4 3 12 2 12 -6 0 -8 -11 -10 -11 -15 0
-4 10 -6 8 -6 -4z"/>
<path d="M2010 1095 c-36 -19 -61 -34 -57 -35 10 0 127 59 127 65 0 7 2 8 -70
-30z"/>
<path d="M1900 1050 c-21 -7 -21 -8 -5 -9 11 0 27 4 35 9 18 11 5 11 -30 0z"/>
<path d="M1793 1043 c9 -2 23 -2 30 0 6 3 -1 5 -18 5 -16 0 -22 -2 -12 -5z"/>
<path d="M1336 1947 c3 -10 9 -15 12 -12 3 3 0 11 -7 18 -10 9 -11 8 -5 -6z"/>
<path d="M1266 1852 c-3 -5 1 -9 9 -9 8 0 12 4 9 9 -3 4 -7 8 -9 8 -2 0 -6 -4
-9 -8z"/>
<path d="M1112 1668 c-7 -7 -12 -18 -12 -26 0 -8 -8 -21 -17 -29 -16 -12 -14
-12 10 -1 18 7 26 17 22 26 -3 8 0 21 6 28 14 17 7 18 -9 2z"/>
<path d="M1177 1643 c-11 -10 -8 -20 6 -20 8 0 14 6 14 14 0 14 -10 17 -20 6z"/>
<path d="M1130 1630 c0 -5 5 -10 10 -10 6 0 10 5 10 10 0 6 -4 10 -10 10 -5 0
-10 -4 -10 -10z"/>
<path d="M1126 1552 c-3 -5 1 -9 9 -9 8 0 12 4 9 9 -3 4 -7 8 -9 8 -2 0 -6 -4
-9 -8z"/>
<path d="M1175 1550 c3 -5 8 -10 11 -10 2 0 4 5 4 10 0 6 -5 10 -11 10 -5 0
-7 -4 -4 -10z"/>
<path d="M1230 1430 c0 -5 5 -10 10 -10 6 0 10 5 10 10 0 6 -4 10 -10 10 -5 0
-10 -4 -10 -10z"/>
<path d="M1265 1430 c-7 -12 19 -24 37 -17 7 3 2 6 -12 6 -20 1 -22 3 -10 11
9 6 10 10 3 10 -6 0 -15 -5 -18 -10z"/>
<path d="M1128 1343 c7 -3 16 -2 19 1 4 3 -2 6 -13 5 -11 0 -14 -3 -6 -6z"/>
<path d="M1143 1110 c-13 -5 -23 -11 -23 -14 0 -7 40 6 46 15 6 10 6 10 -23
-1z"/>
<path d="M1150 1010 c0 -5 -7 -7 -16 -3 -11 4 -15 2 -13 -6 3 -7 7 -12 9 -11
34 7 50 14 50 21 0 5 -7 9 -15 9 -8 0 -15 -4 -15 -10z"/>
<path d="M1080 980 c0 -5 7 -10 15 -10 8 0 15 5 15 10 0 6 -7 10 -15 10 -8 0
-15 -4 -15 -10z"/>
<path d="M1032 963 c-7 -10 -10 -12 -7 -5 4 7 -1 12 -10 12 -9 0 -14 -4 -11
-9 4 -5 0 -12 -6 -14 -7 -3 -2 -6 12 -6 24 0 60 19 60 33 0 13 -26 5 -38 -11z"/>
<path d="M1492 2441 c2 -7 7 -12 11 -12 12 1 9 15 -3 20 -7 2 -11 -2 -8 -8z"/>
<path d="M1590 2440 c0 -5 4 -10 9 -10 6 0 13 5 16 10 3 6 -1 10 -9 10 -9 0
-16 -4 -16 -10z"/>
<path d="M1600 2270 c-12 -7 -12 -12 -2 -22 6 -6 12 -10 13 -7 0 2 2 12 4 22
4 20 4 19 -15 7z"/>
<path d="M1695 2240 c3 -5 10 -10 16 -10 5 0 9 5 9 10 0 6 -7 10 -16 10 -8 0
-12 -4 -9 -10z"/>
<path d="M1585 2220 c3 -5 11 -10 16 -10 6 0 7 5 4 10 -3 6 -11 10 -16 10 -6
0 -7 -4 -4 -10z"/>
<path d="M1576 2185 c-3 -9 0 -15 9 -15 9 0 12 6 9 15 -4 8 -7 15 -9 15 -2 0
-5 -7 -9 -15z"/>
<path d="M1530 2121 c0 -6 5 -13 10 -16 6 -3 10 1 10 9 0 9 -4 16 -10 16 -5 0
-10 -4 -10 -9z"/>
<path d="M926 1893 c9 -37 23 -50 59 -58 l30 -6 -33 15 c-23 11 -34 24 -38 46
-4 16 -11 30 -15 30 -5 0 -6 -12 -3 -27z"/>
<path d="M372 1308 c-3 -38 -20 -79 -44 -105 -26 -28 -6 -31 22 -3 24 24 33
56 27 101 -3 28 -4 29 -5 7z"/>
</g>
</svg>
